<?xml version="1.0" encoding="iso-8859-1"?>
<!-- Generator: Adobe Illustrator 19.0.0, SVG Export Plug-In . SVG Version: 6.00 Build 0)  -->
<svg version="1.1" id="Layer_1" xmlns="http://www.w3.org/2000/svg" xmlns:xlink="http://www.w3.org/1999/xlink" x="0px" y="0px"
	 viewBox="0 0 512.003 512.003" style="enable-background:new 0 0 512.003 512.003;" xml:space="preserve">
<g>
	<circle style="fill:#773A6F;" cx="338.966" cy="151.66" r="49.475"/>
	<circle style="fill:#773A6F;" cx="371.806" cy="201.135" r="49.475"/>
	<circle style="fill:#773A6F;" cx="170.363" cy="201.135" r="49.475"/>
	<circle style="fill:#773A6F;" cx="147.966" cy="143.955" r="49.475"/>
	<circle style="fill:#773A6F;" cx="250.459" cy="176.521" r="60.359"/>
	<circle style="fill:#773A6F;" cx="200.861" cy="250.61" r="49.475"/>
	<circle style="fill:#773A6F;" cx="310.07" cy="238.842" r="49.475"/>
	<circle style="fill:#773A6F;" cx="215.54" cy="321.958" r="49.475"/>
	<circle style="fill:#773A6F;" cx="299.072" cy="316.444" r="49.475"/>
	<circle style="fill:#773A6F;" cx="260.595" cy="395.277" r="49.475"/>
</g>
<g>
	<circle style="fill:#87487B;" cx="98.485" cy="187.411" r="49.475"/>
	<circle style="fill:#87487B;" cx="200.861" cy="187.411" r="49.475"/>
	<circle style="fill:#87487B;" cx="307.544" cy="187.411" r="49.475"/>
	<circle style="fill:#87487B;" cx="413.518" cy="187.411" r="49.475"/>
	<circle style="fill:#87487B;" cx="157.609" cy="280.246" r="49.475"/>
	<circle style="fill:#87487B;" cx="258.069" cy="280.246" r="49.475"/>
	<circle style="fill:#87487B;" cx="359.545" cy="272.483" r="49.475"/>
	<circle style="fill:#87487B;" cx="203.014" cy="371.433" r="49.475"/>
	<circle style="fill:#87487B;" cx="310.07" cy="379.196" r="49.475"/>
	<circle style="fill:#87487B;" cx="256.066" cy="462.528" r="49.475"/>
</g>
<g>
	<circle style="opacity:0.2;fill:#FFFFFF;enable-background:new    ;" cx="278.247" cy="259.236" r="13.241"/>
	<circle style="opacity:0.2;fill:#FFFFFF;enable-background:new    ;" cx="219.838" cy="352.672" r="13.241"/>
	<circle style="opacity:0.2;fill:#FFFFFF;enable-background:new    ;" cx="328.277" cy="356.8" r="13.241"/>
	<circle style="opacity:0.2;fill:#FFFFFF;enable-background:new    ;" cx="269.867" cy="450.236" r="13.241"/>
	<circle style="opacity:0.2;fill:#FFFFFF;enable-background:new    ;" cx="423.961" cy="165.458" r="13.241"/>
	<circle style="opacity:0.2;fill:#FFFFFF;enable-background:new    ;" cx="365.552" cy="258.897" r="13.241"/>
	<circle style="opacity:0.2;fill:#FFFFFF;enable-background:new    ;" cx="219.314" cy="165.458" r="13.241"/>
	<circle style="opacity:0.2;fill:#FFFFFF;enable-background:new    ;" cx="160.874" cy="258.897" r="13.241"/>
	<circle style="opacity:0.2;fill:#FFFFFF;enable-background:new    ;" cx="328.277" cy="165.458" r="13.241"/>
	<circle style="opacity:0.2;fill:#FFFFFF;enable-background:new    ;" cx="108.134" cy="164.168" r="13.244"/>
</g>
<g>
	<path style="fill:#ADA323;" d="M256.263,132.887L270.44,15.998C271.473,7.492,264.831,0,256.263,0l0,0
		c-8.567,0-15.209,7.492-14.177,15.998L256.263,132.887z"/>
	<path style="fill:#ADA323;" d="M256.263,132.887c0,0,53.8-20.052,112.616,2.883c58.813,22.935,84.462-57.402,84.462-57.402
		s-27.264,31.607-68.775,13.653C384.569,92.025,300.277,30.126,256.263,132.887z"/>
	<path style="fill:#ADA323;" d="M251.565,132.887c0,0-53.8-20.052-112.616,2.883S54.487,78.369,54.487,78.369
		s27.264,31.607,68.775,13.653C123.263,92.025,207.552,30.126,251.565,132.887z"/>
</g>
<g>
	<path style="fill:#BCAF33;" d="M256.263,132.887c0,0-141.968-70.904-98.075,79.287
		C158.188,212.176,182.636,122.517,256.263,132.887z"/>
	<path style="fill:#BCAF33;" d="M245.82,132.887c0,0,141.968-70.904,98.075,79.287C343.895,212.176,319.447,122.517,245.82,132.887z
		"/>
</g>
<g>
</g>
<g>
</g>
<g>
</g>
<g>
</g>
<g>
</g>
<g>
</g>
<g>
</g>
<g>
</g>
<g>
</g>
<g>
</g>
<g>
</g>
<g>
</g>
<g>
</g>
<g>
</g>
<g>
</g>
</svg>
