<?xml version="1.0" encoding="iso-8859-1"?>
<!-- Generator: Adobe Illustrator 19.0.0, SVG Export Plug-In . SVG Version: 6.00 Build 0)  -->
<svg version="1.1" id="Layer_1" xmlns="http://www.w3.org/2000/svg" xmlns:xlink="http://www.w3.org/1999/xlink" x="0px" y="0px"
	 viewBox="0 0 501.551 501.551" style="enable-background:new 0 0 501.551 501.551;" xml:space="preserve">
<path style="fill:#F2F2F2;" d="M62.694,166.139v314.514c0,11.494,9.404,20.898,20.898,20.898h203.755V166.139H62.694z"/>
<path style="fill:#CDD6E0;" d="M379.298,57.469h-34.482l-57.469,108.669v335.412h130.612c11.494,0,20.898-9.404,20.898-20.898
	V166.139L379.298,57.469z"/>
<polygon style="fill:#E2E2E2;" points="120.163,57.469 62.694,166.139 287.347,166.139 345.861,57.469 "/>
<path style="fill:#ACB3BA;" d="M358.4,0H141.061c-11.494,0-20.898,9.404-20.898,20.898v36.571h259.135V20.898
	C379.298,9.404,369.894,0,358.4,0z"/>
<rect x="62.694" y="268.539" style="fill:#54C0EB;" width="224.653" height="131.657"/>
<g>
	<path style="fill:#F2F2F2;" d="M94.041,358.4v-49.11h14.629l9.404,33.437l8.359-33.437h14.629v49.11h-9.404v-38.661l-9.404,38.661
		h-9.404l-9.404-38.661V358.4H94.041z"/>
	<path style="fill:#F2F2F2;" d="M150.465,358.4v-49.11h10.449v49.11H150.465z"/>
	<path style="fill:#F2F2F2;" d="M170.318,358.4v-49.11h10.449v40.751h25.078v8.359H170.318z"/>
	<path style="fill:#F2F2F2;" d="M212.114,358.4v-49.11h10.449v21.943l19.853-21.943H256l-18.808,19.853l19.853,30.302h-12.539
		l-13.584-22.988l-8.359,8.359v14.629h-10.449V358.4z"/>
</g>
<g>
</g>
<g>
</g>
<g>
</g>
<g>
</g>
<g>
</g>
<g>
</g>
<g>
</g>
<g>
</g>
<g>
</g>
<g>
</g>
<g>
</g>
<g>
</g>
<g>
</g>
<g>
</g>
<g>
</g>
</svg>
