<?xml version="1.0" encoding="iso-8859-1"?>
<!-- Generator: Adobe Illustrator 19.0.0, SVG Export Plug-In . SVG Version: 6.00 Build 0)  -->
<svg version="1.1" id="Layer_1" xmlns="http://www.w3.org/2000/svg" xmlns:xlink="http://www.w3.org/1999/xlink" x="0px" y="0px"
	 viewBox="0 0 512 512" style="enable-background:new 0 0 512 512;" xml:space="preserve">
<rect x="197.617" y="-32.001" transform="matrix(-0.7071 -0.7071 0.7071 -0.7071 255.9981 618.0186)" style="fill:#6A86AC;" width="116.755" height="575.984"/>
<rect x="205.599" y="-51.262" transform="matrix(-0.7071 -0.7071 0.7071 -0.7071 236.739 571.5204)" style="fill:#889EBD;" width="62.273" height="575.984"/>
<path style="fill:#1D1D1B;" d="M418.364,0L0,418.364L93.636,512L512,93.636L418.364,0z M22.153,418.364l16.443-16.443l54.875,54.875
	l11.076-11.076l-54.875-54.875l10.939-10.939l16.477,16.477l11.076-11.077l-16.477-16.477l10.939-10.939l27.485,27.485
	l11.077-11.076l-27.485-27.485l10.939-10.939l16.477,16.477l11.076-11.077l-16.477-16.477l10.939-10.939l54.874,54.875
	l11.076-11.077l-54.875-54.875l10.939-10.939l16.477,16.477l11.076-11.076l-16.476-16.474l10.939-10.939l27.485,27.485
	l11.076-11.076l-27.485-27.485l10.939-10.939l16.477,16.477l11.076-11.076l-16.477-16.477l10.939-10.939l54.874,54.875
	l11.077-11.076l-54.874-54.875l10.939-10.939l16.477,16.477l11.076-11.076l-16.477-16.477l10.939-10.939l27.485,27.485
	l11.076-11.076L269.83,170.69l10.939-10.939l16.477,16.477l11.077-11.076l-16.477-16.477l10.939-10.939l54.875,54.875l11.077-11.076
	l-54.875-54.874l10.939-10.939l16.477,16.477l11.077-11.076l-16.477-16.477l10.939-10.939l27.485,27.485l11.076-11.076
	L357.89,82.627l10.939-10.939l16.477,16.477l11.077-11.076l-16.478-16.477l10.939-10.939l54.875,54.875l11.076-11.076
	l-54.875-54.875l16.443-16.443l71.482,71.482L93.636,489.847L22.153,418.364z"/>
<g>
</g>
<g>
</g>
<g>
</g>
<g>
</g>
<g>
</g>
<g>
</g>
<g>
</g>
<g>
</g>
<g>
</g>
<g>
</g>
<g>
</g>
<g>
</g>
<g>
</g>
<g>
</g>
<g>
</g>
</svg>
