<?xml version="1.0" encoding="iso-8859-1"?>
<!-- Generator: Adobe Illustrator 19.0.0, SVG Export Plug-In . SVG Version: 6.00 Build 0)  -->
<svg version="1.1" id="Layer_1" xmlns="http://www.w3.org/2000/svg" xmlns:xlink="http://www.w3.org/1999/xlink" x="0px" y="0px"
	 viewBox="0 0 511.986 511.986" style="enable-background:new 0 0 511.986 511.986;" xml:space="preserve">
<g>
	<g>
		<path d="M509.213,190.18l-76.8-85.333c-2.027-2.24-4.907-3.52-7.893-3.52H87.453c-2.987,0-5.867,1.28-7.893,3.52l-76.8,85.333
			c-3.947,4.373-3.627,11.093,0.747,15.04c1.92,1.813,4.48,2.773,7.147,2.773h53.333v192c0,5.867,4.8,10.667,10.667,10.667
			c5.867,0,10.667-4.8,10.667-10.667v-192h42.667v96c0,5.867,4.8,10.667,10.667,10.667c5.867,0,10.667-4.8,10.667-10.667v-96h224v96
			c0,5.867,4.8,10.667,10.667,10.667c5.867,0,10.667-4.8,10.667-10.667v-96h42.667v192c0,5.867,4.8,10.667,10.667,10.667
			c5.867,0,10.667-4.8,10.667-10.667v-192h42.667c5.867,0,10.667-4.8,10.667-10.667C511.986,194.66,511.026,192.1,509.213,190.18z
			 M34.546,186.66l57.6-64h327.573l57.6,64H34.546z"/>
	</g>
</g>
<g>
</g>
<g>
</g>
<g>
</g>
<g>
</g>
<g>
</g>
<g>
</g>
<g>
</g>
<g>
</g>
<g>
</g>
<g>
</g>
<g>
</g>
<g>
</g>
<g>
</g>
<g>
</g>
<g>
</g>
</svg>
